<?xml version="1.0" standalone="no"?>
<!DOCTYPE svg PUBLIC "-//W3C//DTD SVG 20010904//EN"
 "http://www.w3.org/TR/2001/REC-SVG-20010904/DTD/svg10.dtd">
<svg version="1.0" xmlns="http://www.w3.org/2000/svg"
 width="1850.000000pt" height="1850.000000pt" viewBox="0 0 1850.000000 1850.000000"
 preserveAspectRatio="xMidYMid meet">
<metadata>
Created by potrace 1.11, written by Peter Selinger 2001-2013
</metadata>
<g transform="translate(0.000000,1850.000000) scale(0.100000,-0.100000)"
fill="#000000" stroke="none">
<path d="M6787 18448 c-25 -29 -77 -91 -117 -138 -72 -84 -156 -181 -195 -224
-18 -20 -60 -68 -186 -211 -41 -46 -85 -96 -134 -150 -11 -13 -42 -49 -70 -81
-27 -32 -60 -68 -72 -81 -11 -13 -36 -42 -55 -65 -18 -23 -40 -49 -49 -57 -8
-9 -49 -56 -90 -106 -41 -49 -76 -92 -79 -95 -3 -3 -23 -27 -45 -55 -21 -27
-42 -52 -45 -55 -3 -3 -17 -21 -30 -40 -13 -19 -27 -37 -31 -40 -14 -11 -202
-266 -276 -376 -234 -347 -343 -594 -595 -1349 -50 -148 -102 -299 -115 -335
-14 -36 -26 -69 -27 -75 -2 -5 -7 -19 -11 -30 -4 -11 -27 -70 -51 -131 -91
-238 -283 -636 -573 -1194 -483 -927 -724 -1524 -841 -2085 -12 -55 -23 -107
-25 -115 -1 -8 -6 -35 -9 -60 -3 -25 -8 -54 -10 -66 -2 -12 -7 -45 -11 -75 -4
-30 -9 -65 -10 -79 -16 -115 -23 -436 -14 -595 l4 -69 -40 -22 c-22 -13 -45
-27 -51 -32 -6 -5 -20 -13 -32 -16 -12 -4 -22 -12 -22 -17 0 -5 -5 -9 -11 -9
-20 0 -179 -112 -334 -236 -138 -110 -178 -147 -400 -369 -220 -220 -315 -343
-492 -641 -145 -243 -336 -622 -440 -869 -14 -33 -33 -78 -43 -100 -87 -192
-265 -684 -359 -990 -43 -142 -130 -455 -146 -525 -2 -8 -19 -82 -38 -165 -19
-82 -38 -168 -42 -190 -5 -22 -9 -44 -11 -50 -3 -16 -36 -188 -40 -210 -2 -11
-5 -31 -8 -45 -23 -124 -61 -398 -71 -518 -4 -42 -9 -90 -11 -107 -12 -105
-19 -277 -19 -535 0 -348 4 -407 51 -750 16 -118 86 -398 137 -545 73 -212
210 -477 324 -625 18 -24 126 -155 132 -160 3 -3 14 -15 25 -27 16 -20 17 -24
3 -38 -9 -8 -19 -15 -22 -15 -18 0 -289 -206 -368 -279 -126 -117 -172 -168
-277 -306 -188 -247 -288 -426 -366 -650 l-49 -140 -3 -617 -3 -618 7916 0
7915 0 -4 22 c-16 74 -36 145 -87 308 -113 354 -265 672 -478 994 -150 228
-399 509 -617 697 -93 81 -109 93 -194 156 -47 35 -92 70 -101 78 -9 8 -20 15
-26 15 -5 0 -18 9 -28 20 -10 11 -22 20 -26 20 -4 0 -35 18 -68 40 -33 22 -62
40 -64 40 -3 0 -34 18 -69 39 -68 41 -350 181 -365 181 -5 0 -28 9 -51 20 -22
11 -45 20 -51 20 -5 0 -23 19 -40 41 l-30 42 32 21 c18 12 46 29 62 37 264
135 554 291 650 350 17 10 44 26 60 35 17 9 32 20 35 23 3 3 32 24 64 46 64
43 211 167 237 200 9 11 26 30 36 42 11 12 28 34 39 48 10 15 73 99 140 188
66 89 182 245 258 347 76 102 143 192 149 200 7 9 37 49 68 91 34 46 64 75 75
75 81 2 311 20 369 28 177 26 342 101 434 196 64 67 127 182 146 268 4 22 12
32 23 31 10 -1 19 -1 22 0 10 4 139 11 237 13 57 2 103 6 103 9 0 3 10 5 21 4
33 -2 156 23 229 46 94 31 219 94 261 132 20 17 63 55 95 82 234 201 279 309
200 480 -52 113 -89 159 -160 196 -36 19 -54 26 -101 34 -18 4 -53 11 -95 20
-8 2 -20 4 -26 4 -6 1 9 22 32 48 49 53 105 153 135 240 25 74 35 190 20 234
-14 41 -11 44 89 95 41 21 99 53 128 71 29 18 56 33 61 33 5 0 11 3 13 8 2 4
30 26 64 49 98 68 222 181 267 245 10 14 30 39 46 57 55 61 107 183 127 299 2
12 6 34 9 50 2 15 7 52 10 82 11 103 15 123 35 159 127 233 169 589 105 889
-26 122 -91 288 -132 334 -12 13 -13 31 -8 85 14 131 11 293 -7 398 -27 160
-72 242 -158 283 -19 9 -39 20 -45 24 -5 5 -32 23 -60 41 -76 48 -89 63 -159
189 -93 168 -221 352 -379 548 -214 264 -459 503 -574 558 -18 9 -33 19 -33
24 0 4 -4 8 -9 8 -6 0 -43 24 -84 53 -41 29 -89 61 -108 70 -19 10 -41 22 -49
27 -14 9 -88 42 -100 44 -39 9 -57 57 -185 475 -194 639 -269 800 -665 1421
-196 307 -310 491 -310 497 0 3 -8 17 -19 31 -19 27 -123 212 -198 352 -51 95
-158 301 -308 595 -65 127 -136 264 -158 305 -87 163 -167 309 -217 395 -29
50 -58 99 -64 110 -21 37 -166 260 -189 290 -4 5 -41 55 -82 110 -41 55 -103
131 -137 168 -33 38 -72 85 -86 105 -44 66 -87 127 -92 132 -17 16 -179 246
-255 361 -104 157 -94 140 -186 311 -38 72 -83 151 -100 175 -16 24 -29 48
-29 54 0 5 -4 9 -10 9 -5 0 -10 6 -10 14 0 8 -3 16 -8 18 -4 2 -23 28 -42 58
-19 30 -37 57 -40 60 -4 3 -25 32 -48 65 -23 33 -56 80 -73 105 -313 444 -379
546 -494 765 -26 50 -74 136 -107 193 l-60 102 -2713 0 -2713 0 -45 -52z"/>
</g>
</svg>
